%TF.GenerationSoftware,Altium Limited,Altium Designer,23.7.1 (13)*%
G04 Layer_Color=0*
%FSLAX45Y45*%
%MOMM*%
%TF.SameCoordinates,C6FC8C43-5F09-430E-809C-99FA1FC46BEF*%
%TF.FilePolarity,Positive*%
%TF.FileFunction,Plated,1,2,PTH,Drill*%
%TF.Part,Single*%
G01*
G75*
%TA.AperFunction,ComponentDrill*%
%ADD39C,1.05000*%
%ADD40C,1.02000*%
%ADD41C,0.90000*%
%ADD42O,2.60000X1.00000*%
%ADD43O,1.00000X2.60000*%
%TA.AperFunction,ViaDrill,NotFilled*%
%ADD44C,0.71120*%
D39*
X9443800Y5600000D02*
D03*
X8356200D02*
D03*
D40*
X9488000Y8150000D02*
D03*
X9742000D02*
D03*
X9996000D02*
D03*
X10250000D02*
D03*
X10504000D02*
D03*
X7904000Y5600000D02*
D03*
X7650000D02*
D03*
X7396000D02*
D03*
X7142000D02*
D03*
X6888000D02*
D03*
D41*
X7838000Y5969000D02*
D03*
X8092000D02*
D03*
X8346000D02*
D03*
X8600000D02*
D03*
X8854000D02*
D03*
X9108000D02*
D03*
X9362000D02*
D03*
X7838000Y6731000D02*
D03*
X8092000D02*
D03*
X8346000D02*
D03*
X8600000D02*
D03*
X8854000D02*
D03*
X9108000D02*
D03*
X9362000D02*
D03*
D42*
X10650000Y7520000D02*
D03*
D43*
X10950000Y7050000D02*
D03*
X10350000D02*
D03*
D44*
X9650000Y5950000D02*
D03*
X8650000Y8200000D02*
D03*
X11050000Y7650000D02*
D03*
X10050000Y7350000D02*
D03*
X7650000Y5350000D02*
D03*
X10950000Y5900000D02*
D03*
X9600000Y7850000D02*
D03*
X10700000Y6200000D02*
D03*
X8600000Y7550000D02*
D03*
%TF.MD5,a7a296390c8e4bbc4340e897ddd16686*%
M02*
