%TF.GenerationSoftware,Altium Limited,Altium Designer,23.7.1 (13)*%
G04 Layer_Color=16711935*
%FSLAX45Y45*%
%MOMM*%
%TF.SameCoordinates,C6FC8C43-5F09-430E-809C-99FA1FC46BEF*%
%TF.FilePolarity,Negative*%
%TF.FileFunction,Soldermask,Bot*%
%TF.Part,Single*%
G01*
G75*
%TA.AperFunction,ComponentPad*%
%ADD15C,1.60000*%
%ADD16R,1.60000X1.60000*%
G04:AMPARAMS|DCode=21|XSize=1.6mm|YSize=3.2mm|CornerRadius=0.8mm|HoleSize=0mm|Usage=FLASHONLY|Rotation=270.000|XOffset=0mm|YOffset=0mm|HoleType=Round|Shape=RoundedRectangle|*
%AMROUNDEDRECTD21*
21,1,1.60000,1.60000,0,0,270.0*
21,1,0.00000,3.20000,0,0,270.0*
1,1,1.60000,-0.80000,0.00000*
1,1,1.60000,-0.80000,0.00000*
1,1,1.60000,0.80000,0.00000*
1,1,1.60000,0.80000,0.00000*
%
%ADD21ROUNDEDRECTD21*%
G04:AMPARAMS|DCode=22|XSize=3.2mm|YSize=1.6mm|CornerRadius=0.8mm|HoleSize=0mm|Usage=FLASHONLY|Rotation=270.000|XOffset=0mm|YOffset=0mm|HoleType=Round|Shape=RoundedRectangle|*
%AMROUNDEDRECTD22*
21,1,3.20000,0.00000,0,0,270.0*
21,1,1.60000,1.60000,0,0,270.0*
1,1,1.60000,0.00000,-0.80000*
1,1,1.60000,0.00000,0.80000*
1,1,1.60000,0.00000,0.80000*
1,1,1.60000,0.00000,-0.80000*
%
%ADD22ROUNDEDRECTD22*%
%ADD23R,1.60000X3.20000*%
%ADD33C,1.75320*%
%ADD34R,1.75320X1.75320*%
%ADD35C,1.70320*%
%ADD36R,1.70320X1.70320*%
%TA.AperFunction,ViaPad*%
%ADD37C,1.47320*%
D15*
X9443800Y5600000D02*
D03*
D16*
X8356200D02*
D03*
D21*
X10650000Y7520000D02*
D03*
D22*
X10950000Y7050000D02*
D03*
D23*
X10350000D02*
D03*
D33*
X9488000Y8150000D02*
D03*
X9742000D02*
D03*
X9996000D02*
D03*
X10250000D02*
D03*
X7650000Y5600000D02*
D03*
X7396000D02*
D03*
X7142000D02*
D03*
X6888000D02*
D03*
D34*
X10504000Y8150000D02*
D03*
X7904000Y5600000D02*
D03*
D35*
X7838000Y5969000D02*
D03*
X8092000D02*
D03*
X8346000D02*
D03*
X8600000D02*
D03*
X8854000D02*
D03*
X9108000D02*
D03*
X9362000D02*
D03*
X7838000Y6731000D02*
D03*
X8092000D02*
D03*
X8346000D02*
D03*
X8600000D02*
D03*
X8854000D02*
D03*
X9108000D02*
D03*
D36*
X9362000D02*
D03*
D37*
X9650000Y5950000D02*
D03*
X8650000Y8200000D02*
D03*
X11050000Y7650000D02*
D03*
X10050000Y7350000D02*
D03*
X7650000Y5350000D02*
D03*
X10950000Y5900000D02*
D03*
X9600000Y7850000D02*
D03*
X10700000Y6200000D02*
D03*
X8600000Y7550000D02*
D03*
%TF.MD5,768fdac1378e6fa955ccb0a5dd4ed321*%
M02*
