%TF.GenerationSoftware,Altium Limited,Altium Designer,23.7.1 (13)*%
G04 Layer_Color=65535*
%FSLAX45Y45*%
%MOMM*%
%TF.SameCoordinates,C6FC8C43-5F09-430E-809C-99FA1FC46BEF*%
%TF.FilePolarity,Positive*%
%TF.FileFunction,Legend,Top*%
%TF.Part,Single*%
G01*
G75*
%TA.AperFunction,NonConductor*%
%ADD25C,0.25000*%
%ADD26C,0.60000*%
%ADD27C,0.20000*%
%ADD28C,0.15000*%
%ADD29C,0.25400*%
D25*
X10516500Y8335000D02*
G03*
X10516500Y8335000I-12500J0D01*
G01*
X8556000Y7696000D02*
G03*
X8556000Y7696000I-12500J0D01*
G01*
X9504500Y6731000D02*
G03*
X9504500Y6731000I-12500J0D01*
G01*
X10217500Y7050000D02*
G03*
X10217500Y7050000I-12500J0D01*
G01*
X7916500Y5785000D02*
G03*
X7916500Y5785000I-12500J0D01*
G01*
D26*
X9515000Y6515000D02*
G03*
X9515000Y6515000I-30000J0D01*
G01*
D27*
X9585000Y6413500D02*
G03*
X9585000Y6286500I0J-63500D01*
G01*
X8770000Y5472000D02*
Y5728000D01*
X9160000Y5600000D02*
X9323800D01*
X8476200D02*
X8640000D01*
Y5465000D02*
Y5735000D01*
Y5465000D02*
X9160000D01*
Y5735000D01*
X8640000D02*
X9160000D01*
X10631000Y8030000D02*
Y8270000D01*
X9361000D02*
X10631000D01*
X9361000Y8030000D02*
Y8270000D01*
Y8030000D02*
X10631000D01*
X7806000Y8310500D02*
X8294000D01*
X7806000Y7589500D02*
X8294000D01*
X7615000Y6085000D02*
Y6615000D01*
X9585000Y6085000D02*
Y6286500D01*
Y6413500D02*
Y6615000D01*
X7615000Y6085000D02*
X9585000D01*
X7615000Y6615000D02*
X9585000D01*
X10847500Y7510000D02*
X11730000D01*
X10270000D02*
X10452500D01*
X10270000Y6590000D02*
Y6852500D01*
Y7247500D02*
Y7510000D01*
Y6590000D02*
X11730000D01*
Y7510000D01*
X6761000Y5480000D02*
X8031000D01*
X6761000D02*
Y5720000D01*
X8031000D01*
Y5480000D02*
Y5720000D01*
D28*
X10420000Y6255000D02*
X10480000D01*
X10420000Y6145000D02*
X10480000D01*
X7570000Y7195000D02*
X7630000D01*
X7570000Y7305000D02*
X7630000D01*
X8255000Y7270000D02*
Y7330000D01*
X8145000Y7270000D02*
Y7330000D01*
X7195000Y6920000D02*
Y6980000D01*
X7305000Y6920000D02*
Y6980000D01*
X7195000Y6470000D02*
Y6530000D01*
X7305000Y6470000D02*
Y6530000D01*
X6895000Y6470000D02*
Y6530000D01*
X7005000Y6470000D02*
Y6530000D01*
X9255000Y7270000D02*
Y7330000D01*
X9145000Y7270000D02*
Y7330000D01*
X8955000Y7270000D02*
Y7330000D01*
X8845000Y7270000D02*
Y7330000D01*
X6645000Y6470000D02*
Y6530000D01*
X6755000Y6470000D02*
Y6530000D01*
X8545000Y7270000D02*
Y7330000D01*
X8655000Y7270000D02*
Y7330000D01*
X9445000Y7270000D02*
Y7330000D01*
X9555000Y7270000D02*
Y7330000D01*
X9855000Y7270000D02*
Y7330000D01*
X9745000Y7270000D02*
Y7330000D01*
X10895000Y6120000D02*
Y6180000D01*
X11005000Y6120000D02*
Y6180000D01*
D29*
X8280400Y5984191D02*
Y5831840D01*
X8356575D01*
X8381967Y5857232D01*
Y5958799D01*
X8356575Y5984191D01*
X8280400D01*
X8432751Y5831840D02*
X8483534D01*
X8458143D01*
Y5984191D01*
X8432751Y5958799D01*
X9375140Y8435340D02*
Y8587691D01*
X9451315D01*
X9476707Y8562299D01*
Y8511515D01*
X9451315Y8486123D01*
X9375140D01*
X9527491Y8562299D02*
X9552883Y8587691D01*
X9603666D01*
X9629058Y8562299D01*
Y8536907D01*
X9603666Y8511515D01*
X9578274D01*
X9603666D01*
X9629058Y8486123D01*
Y8460732D01*
X9603666Y8435340D01*
X9552883D01*
X9527491Y8460732D01*
X10450000Y6500784D02*
X10424608Y6526175D01*
X10373825D01*
X10348433Y6500784D01*
Y6399217D01*
X10373825Y6373825D01*
X10424608D01*
X10450000Y6399217D01*
X10500784Y6373825D02*
X10551567D01*
X10526176D01*
Y6526175D01*
X10500784Y6500784D01*
X7773825Y7326959D02*
X7926175D01*
Y7250784D01*
X7900784Y7225392D01*
X7850000D01*
X7824608Y7250784D01*
Y7326959D01*
Y7276175D02*
X7773825Y7225392D01*
X7926175Y7174608D02*
Y7073041D01*
X7900784D01*
X7799217Y7174608D01*
X7773825D01*
X7799216Y7274608D02*
X7773824Y7249216D01*
Y7198433D01*
X7799216Y7173041D01*
X7900783D01*
X7926175Y7198433D01*
Y7249216D01*
X7900783Y7274608D01*
X7773824Y7426959D02*
Y7325391D01*
X7850000D01*
X7824608Y7376175D01*
Y7401567D01*
X7850000Y7426959D01*
X7900783D01*
X7926175Y7401567D01*
Y7350783D01*
X7900783Y7325391D01*
X7548433Y8323825D02*
Y8476175D01*
X7624608D01*
X7650000Y8450783D01*
Y8400000D01*
X7624608Y8374608D01*
X7548433D01*
X7700784Y8323825D02*
X7751567D01*
X7726176D01*
Y8476175D01*
X7700784Y8450783D01*
X7373041Y6873825D02*
Y7026175D01*
X7449216D01*
X7474608Y7000784D01*
Y6950000D01*
X7449216Y6924608D01*
X7373041D01*
X7423825D02*
X7474608Y6873825D01*
X7626959Y7026175D02*
X7576175Y7000784D01*
X7525392Y6950000D01*
Y6899217D01*
X7550784Y6873825D01*
X7601567D01*
X7626959Y6899217D01*
Y6924608D01*
X7601567Y6950000D01*
X7525392D01*
X7373041Y6323825D02*
Y6476175D01*
X7449216D01*
X7474608Y6450783D01*
Y6400000D01*
X7449216Y6374608D01*
X7373041D01*
X7423825D02*
X7474608Y6323825D01*
X7626959Y6476175D02*
X7525392D01*
Y6400000D01*
X7576175Y6425392D01*
X7601567D01*
X7626959Y6400000D01*
Y6349216D01*
X7601567Y6323825D01*
X7550784D01*
X7525392Y6349216D01*
X6873041Y6673825D02*
Y6826175D01*
X6949216D01*
X6974608Y6800783D01*
Y6750000D01*
X6949216Y6724608D01*
X6873041D01*
X6923825D02*
X6974608Y6673825D01*
X7126959D02*
X7025392D01*
X7126959Y6775392D01*
Y6800783D01*
X7101567Y6826175D01*
X7050784D01*
X7025392Y6800783D01*
X9348433Y7026175D02*
Y6899216D01*
X9373825Y6873824D01*
X9424609D01*
X9450000Y6899216D01*
Y7026175D01*
X9500784Y6873824D02*
X9551567D01*
X9526176D01*
Y7026175D01*
X9500784Y7000783D01*
X9123825Y7126959D02*
X9276176D01*
Y7050783D01*
X9250784Y7025391D01*
X9200000D01*
X9174608Y7050783D01*
Y7126959D01*
Y7076175D02*
X9123825Y7025391D01*
Y6898432D02*
X9276176D01*
X9200000Y6974608D01*
Y6873041D01*
X8773825Y7126959D02*
X8926175D01*
Y7050783D01*
X8900784Y7025391D01*
X8850000D01*
X8824608Y7050783D01*
Y7126959D01*
Y7076175D02*
X8773825Y7025391D01*
X8900784Y6974608D02*
X8926175Y6949216D01*
Y6898432D01*
X8900784Y6873041D01*
X8875392D01*
X8850000Y6898432D01*
Y6923824D01*
Y6898432D01*
X8824608Y6873041D01*
X8799217D01*
X8773825Y6898432D01*
Y6949216D01*
X8799217Y6974608D01*
X6598433Y6873825D02*
Y7026175D01*
X6674608D01*
X6700000Y7000784D01*
Y6950000D01*
X6674608Y6924608D01*
X6598433D01*
X6649216D02*
X6700000Y6873825D01*
X6750784D02*
X6801567D01*
X6776175D01*
Y7026175D01*
X6750784Y7000784D01*
X6777041Y5723824D02*
Y5876175D01*
X6853216D01*
X6878608Y5850783D01*
Y5800000D01*
X6853216Y5774608D01*
X6777041D01*
X7030959Y5723824D02*
X6929392D01*
X7030959Y5825392D01*
Y5850783D01*
X7005567Y5876175D01*
X6954784D01*
X6929392Y5850783D01*
X11000000Y6373825D02*
X11050783D01*
X11025391D01*
Y6500784D01*
X11050783Y6526175D01*
X11076175D01*
X11101567Y6500784D01*
X10949216Y6526175D02*
X10898433D01*
X10923824D01*
Y6373825D01*
X10949216Y6399217D01*
X8638507Y7655519D02*
X8613115Y7680911D01*
X8562332D01*
X8536940Y7655519D01*
Y7553952D01*
X8562332Y7528560D01*
X8613115D01*
X8638507Y7553952D01*
X8790858Y7680911D02*
X8740074Y7655519D01*
X8689291Y7604735D01*
Y7553952D01*
X8714683Y7528560D01*
X8765466D01*
X8790858Y7553952D01*
Y7579343D01*
X8765466Y7604735D01*
X8689291D01*
X9550784Y7025391D02*
X9576176Y7050783D01*
Y7101567D01*
X9550784Y7126959D01*
X9449217D01*
X9423825Y7101567D01*
Y7050783D01*
X9449217Y7025391D01*
X9423825Y6898432D02*
X9576176D01*
X9500000Y6974608D01*
Y6873041D01*
X9799217Y6974608D02*
X9773825Y6949216D01*
Y6898433D01*
X9799217Y6873041D01*
X9900784D01*
X9926175Y6898433D01*
Y6949216D01*
X9900784Y6974608D01*
X9799217Y7025392D02*
X9773825Y7050784D01*
Y7101567D01*
X9799217Y7126959D01*
X9824608D01*
X9850000Y7101567D01*
Y7076175D01*
Y7101567D01*
X9875392Y7126959D01*
X9900784D01*
X9926175Y7101567D01*
Y7050784D01*
X9900784Y7025392D01*
X10990547Y6504899D02*
X10965155Y6530291D01*
X10914372D01*
X10888980Y6504899D01*
Y6403332D01*
X10914372Y6377940D01*
X10965155D01*
X10990547Y6403332D01*
X11142898Y6377940D02*
X11041331D01*
X11142898Y6479507D01*
Y6504899D01*
X11117506Y6530291D01*
X11066723D01*
X11041331Y6504899D01*
%TF.MD5,82ba75a53083833433a8a7d7fe79dc00*%
M02*
