%TF.GenerationSoftware,Altium Limited,Altium Designer,23.7.1 (13)*%
G04 Layer_Physical_Order=1*
G04 Layer_Color=255*
%FSLAX45Y45*%
%MOMM*%
%TF.SameCoordinates,C6FC8C43-5F09-430E-809C-99FA1FC46BEF*%
%TF.FilePolarity,Positive*%
%TF.FileFunction,Copper,L1,Top,Signal*%
%TF.Part,Single*%
G01*
G75*
%TA.AperFunction,SMDPad,CuDef*%
G04:AMPARAMS|DCode=10|XSize=1.3mm|YSize=0.76mm|CornerRadius=0.095mm|HoleSize=0mm|Usage=FLASHONLY|Rotation=90.000|XOffset=0mm|YOffset=0mm|HoleType=Round|Shape=RoundedRectangle|*
%AMROUNDEDRECTD10*
21,1,1.30000,0.57000,0,0,90.0*
21,1,1.11000,0.76000,0,0,90.0*
1,1,0.19000,0.28500,0.55500*
1,1,0.19000,0.28500,-0.55500*
1,1,0.19000,-0.28500,-0.55500*
1,1,0.19000,-0.28500,0.55500*
%
%ADD10ROUNDEDRECTD10*%
G04:AMPARAMS|DCode=11|XSize=1.3mm|YSize=0.76mm|CornerRadius=0.095mm|HoleSize=0mm|Usage=FLASHONLY|Rotation=0.000|XOffset=0mm|YOffset=0mm|HoleType=Round|Shape=RoundedRectangle|*
%AMROUNDEDRECTD11*
21,1,1.30000,0.57000,0,0,0.0*
21,1,1.11000,0.76000,0,0,0.0*
1,1,0.19000,0.55500,-0.28500*
1,1,0.19000,-0.55500,-0.28500*
1,1,0.19000,-0.55500,0.28500*
1,1,0.19000,0.55500,0.28500*
%
%ADD11ROUNDEDRECTD11*%
%ADD12R,3.56000X1.27000*%
%TA.AperFunction,Conductor*%
%ADD13C,0.30000*%
%ADD14C,1.50000*%
%TA.AperFunction,ComponentPad*%
%ADD15C,1.60000*%
%ADD16R,1.60000X1.60000*%
%ADD17C,1.55000*%
%ADD18R,1.55000X1.55000*%
%ADD19C,1.50000*%
%ADD20R,1.50000X1.50000*%
G04:AMPARAMS|DCode=21|XSize=1.6mm|YSize=3.2mm|CornerRadius=0.8mm|HoleSize=0mm|Usage=FLASHONLY|Rotation=270.000|XOffset=0mm|YOffset=0mm|HoleType=Round|Shape=RoundedRectangle|*
%AMROUNDEDRECTD21*
21,1,1.60000,1.60000,0,0,270.0*
21,1,0.00000,3.20000,0,0,270.0*
1,1,1.60000,-0.80000,0.00000*
1,1,1.60000,-0.80000,0.00000*
1,1,1.60000,0.80000,0.00000*
1,1,1.60000,0.80000,0.00000*
%
%ADD21ROUNDEDRECTD21*%
G04:AMPARAMS|DCode=22|XSize=3.2mm|YSize=1.6mm|CornerRadius=0.8mm|HoleSize=0mm|Usage=FLASHONLY|Rotation=270.000|XOffset=0mm|YOffset=0mm|HoleType=Round|Shape=RoundedRectangle|*
%AMROUNDEDRECTD22*
21,1,3.20000,0.00000,0,0,270.0*
21,1,1.60000,1.60000,0,0,270.0*
1,1,1.60000,0.00000,-0.80000*
1,1,1.60000,0.00000,0.80000*
1,1,1.60000,0.00000,0.80000*
1,1,1.60000,0.00000,-0.80000*
%
%ADD22ROUNDEDRECTD22*%
%ADD23R,1.60000X3.20000*%
%TA.AperFunction,ViaPad*%
%ADD24C,1.27000*%
D10*
X10539000Y6200000D02*
D03*
X10360000D02*
D03*
X7690000Y7250000D02*
D03*
X7511000D02*
D03*
D11*
X8200000Y7211000D02*
D03*
Y7390000D02*
D03*
X7250000Y6860000D02*
D03*
Y7039000D02*
D03*
Y6410000D02*
D03*
Y6589000D02*
D03*
X6950000Y6410000D02*
D03*
Y6589000D02*
D03*
X9200000Y7390000D02*
D03*
Y7211000D02*
D03*
X8900000Y7390000D02*
D03*
Y7211000D02*
D03*
X6700000Y6410000D02*
D03*
Y6589000D02*
D03*
X8600000Y7389000D02*
D03*
Y7210000D02*
D03*
X9500000Y7389000D02*
D03*
Y7210000D02*
D03*
X9800000Y7211000D02*
D03*
Y7390000D02*
D03*
X10950000Y6239000D02*
D03*
Y6060000D02*
D03*
D12*
X8310500Y7696000D02*
D03*
X7789500D02*
D03*
X8310500Y7950000D02*
D03*
X7789500D02*
D03*
X8310500Y8204000D02*
D03*
X7789500D02*
D03*
D13*
X9515600Y6084400D02*
X9650000Y5950000D01*
X8600000Y5969000D02*
X8715400Y6084400D01*
X9515600D01*
X6950000Y6589000D02*
Y7600000D01*
X7300000Y7950000D02*
X7789500D01*
X6950000Y7600000D02*
X7300000Y7950000D01*
X6700000Y6589000D02*
Y7800000D01*
X7104000Y8204000D02*
X7789500D01*
X6700000Y7800000D02*
X7104000Y8204000D01*
X6950000Y5792000D02*
Y6410000D01*
Y5792000D02*
X7142000Y5600000D01*
X6700000Y5788000D02*
Y6410000D01*
Y5788000D02*
X6888000Y5600000D01*
X7250000Y5746000D02*
Y6410000D01*
Y5746000D02*
X7396000Y5600000D01*
X7250000Y6410000D02*
X7517000D01*
X7838000Y6731000D01*
X7250000Y6860000D02*
X7963000D01*
X8092000Y6731000D01*
X8189000Y7200000D02*
X8200000Y7211000D01*
X8000000Y7200000D02*
X8189000D01*
X7690000Y7250000D02*
X7950000D01*
X8000000Y7200000D01*
X7300000Y7250000D02*
X7511000D01*
X7250000Y7039000D02*
Y7200000D01*
X7300000Y7250000D01*
X9108000Y6731000D02*
X9362000D01*
X8992600Y6615600D02*
X9108000Y6731000D01*
X8298200Y6615600D02*
X8992600D01*
X8207400Y6706400D02*
X8298200Y6615600D01*
X7947200Y7039000D02*
X8207400Y6778800D01*
Y6706400D02*
Y6778800D01*
X7250000Y7039000D02*
X7947200D01*
X8346000Y6731000D02*
X8350000Y6735000D01*
X8200000Y7211000D02*
X8227000D01*
X8350000Y7088000D01*
Y6735000D02*
Y7088000D01*
X8190000Y7400000D02*
X8200000Y7390000D01*
X7900000Y7400000D02*
X8190000D01*
X7789500Y7510500D02*
Y7696000D01*
Y7510500D02*
X7900000Y7400000D01*
X8310500Y8204000D02*
X8314500Y8200000D01*
X8650000D01*
X8310500Y7950000D02*
Y8204000D01*
X7250000Y6589000D02*
Y6860000D01*
X8600000Y7210000D02*
X8710000D01*
X8850000Y7350000D01*
Y7367000D01*
X8873000Y7390000D01*
X8900000D01*
X8600000Y7389000D02*
Y7550000D01*
Y6731000D02*
Y7210000D01*
X8310500Y7472500D02*
Y7696000D01*
Y7472500D02*
X8573000Y7210000D01*
X8600000D01*
X9800000Y7390000D02*
X9983752D01*
X10023752Y7350000D01*
X10050000D01*
X9500000Y7389000D02*
X9500500Y7389500D01*
X9799500D01*
X9800000Y7390000D01*
X9200000D02*
X9200500Y7389500D01*
X9499500D01*
X9500000Y7389000D01*
Y7210000D02*
X9500500Y7210500D01*
X9799500D01*
X9800000Y7211000D01*
X9200000D02*
X9200500Y7210500D01*
X9499500D01*
X9500000Y7210000D01*
X8900000Y7211000D02*
X9200000D01*
X8900000Y6809472D02*
Y7211000D01*
X8854000Y6763472D02*
X8900000Y6809472D01*
X8854000Y6731000D02*
Y6763472D01*
X10539000Y6200000D02*
X10700000D01*
X10360000Y6960000D02*
X10950000Y6370000D01*
X10350000Y6970000D02*
X10360000Y6960000D01*
X10350000Y6970000D02*
Y7050000D01*
X10950000Y6239000D02*
Y6370000D01*
Y5900000D02*
Y6060000D01*
X9600000Y7850000D02*
Y7850656D01*
X9488000Y7962656D02*
X9600000Y7850656D01*
X9488000Y7962656D02*
Y8150000D01*
X9742000D01*
X9996000D01*
X10250000D01*
D14*
X10950000Y7050000D02*
Y7550000D01*
X11050000Y7650000D01*
X10350000Y7996000D02*
X10504000Y8150000D01*
X10350000Y7050000D02*
Y7996000D01*
X7650000Y5350000D02*
Y5600000D01*
X7904000D02*
X8356200D01*
X9443800D02*
X10050000D01*
X10360000Y5910000D01*
Y6200000D02*
Y6960000D01*
Y5910000D02*
Y6200000D01*
D15*
X9443800Y5600000D02*
D03*
D16*
X8356200D02*
D03*
D17*
X9488000Y8150000D02*
D03*
X9742000D02*
D03*
X9996000D02*
D03*
X10250000D02*
D03*
X7650000Y5600000D02*
D03*
X7396000D02*
D03*
X7142000D02*
D03*
X6888000D02*
D03*
D18*
X10504000Y8150000D02*
D03*
X7904000Y5600000D02*
D03*
D19*
X7838000Y5969000D02*
D03*
X8092000D02*
D03*
X8346000D02*
D03*
X8600000D02*
D03*
X8854000D02*
D03*
X9108000D02*
D03*
X9362000D02*
D03*
X7838000Y6731000D02*
D03*
X8092000D02*
D03*
X8346000D02*
D03*
X8600000D02*
D03*
X8854000D02*
D03*
X9108000D02*
D03*
D20*
X9362000D02*
D03*
D21*
X10650000Y7520000D02*
D03*
D22*
X10950000Y7050000D02*
D03*
D23*
X10350000D02*
D03*
D24*
X9650000Y5950000D02*
D03*
X8650000Y8200000D02*
D03*
X11050000Y7650000D02*
D03*
X10050000Y7350000D02*
D03*
X7650000Y5350000D02*
D03*
X10950000Y5900000D02*
D03*
X9600000Y7850000D02*
D03*
X10700000Y6200000D02*
D03*
X8600000Y7550000D02*
D03*
%TF.MD5,5dd0145896d27c530b65546207024a1f*%
M02*
