%TF.GenerationSoftware,Altium Limited,Altium Designer,23.7.1 (13)*%
G04 Layer_Color=8421504*
%FSLAX45Y45*%
%MOMM*%
%TF.SameCoordinates,C6FC8C43-5F09-430E-809C-99FA1FC46BEF*%
%TF.FilePolarity,Positive*%
%TF.FileFunction,Paste,Top*%
%TF.Part,Single*%
G01*
G75*
%TA.AperFunction,SMDPad,CuDef*%
G04:AMPARAMS|DCode=10|XSize=1.3mm|YSize=0.76mm|CornerRadius=0.095mm|HoleSize=0mm|Usage=FLASHONLY|Rotation=90.000|XOffset=0mm|YOffset=0mm|HoleType=Round|Shape=RoundedRectangle|*
%AMROUNDEDRECTD10*
21,1,1.30000,0.57000,0,0,90.0*
21,1,1.11000,0.76000,0,0,90.0*
1,1,0.19000,0.28500,0.55500*
1,1,0.19000,0.28500,-0.55500*
1,1,0.19000,-0.28500,-0.55500*
1,1,0.19000,-0.28500,0.55500*
%
%ADD10ROUNDEDRECTD10*%
G04:AMPARAMS|DCode=11|XSize=1.3mm|YSize=0.76mm|CornerRadius=0.095mm|HoleSize=0mm|Usage=FLASHONLY|Rotation=0.000|XOffset=0mm|YOffset=0mm|HoleType=Round|Shape=RoundedRectangle|*
%AMROUNDEDRECTD11*
21,1,1.30000,0.57000,0,0,0.0*
21,1,1.11000,0.76000,0,0,0.0*
1,1,0.19000,0.55500,-0.28500*
1,1,0.19000,-0.55500,-0.28500*
1,1,0.19000,-0.55500,0.28500*
1,1,0.19000,0.55500,0.28500*
%
%ADD11ROUNDEDRECTD11*%
%ADD12R,3.56000X1.27000*%
D10*
X10539000Y6200000D02*
D03*
X10360000D02*
D03*
X7690000Y7250000D02*
D03*
X7511000D02*
D03*
D11*
X8200000Y7211000D02*
D03*
Y7390000D02*
D03*
X7250000Y6860000D02*
D03*
Y7039000D02*
D03*
Y6410000D02*
D03*
Y6589000D02*
D03*
X6950000Y6410000D02*
D03*
Y6589000D02*
D03*
X9200000Y7390000D02*
D03*
Y7211000D02*
D03*
X8900000Y7390000D02*
D03*
Y7211000D02*
D03*
X6700000Y6410000D02*
D03*
Y6589000D02*
D03*
X8600000Y7389000D02*
D03*
Y7210000D02*
D03*
X9500000Y7389000D02*
D03*
Y7210000D02*
D03*
X9800000Y7211000D02*
D03*
Y7390000D02*
D03*
X10950000Y6239000D02*
D03*
Y6060000D02*
D03*
D12*
X8310500Y7696000D02*
D03*
X7789500D02*
D03*
X8310500Y7950000D02*
D03*
X7789500D02*
D03*
X8310500Y8204000D02*
D03*
X7789500D02*
D03*
%TF.MD5,f9f71884a0a47b761e4ea640da9fed7a*%
M02*
