%TF.GenerationSoftware,Altium Limited,Altium Designer,23.7.1 (13)*%
G04 Layer_Color=8388736*
%FSLAX45Y45*%
%MOMM*%
%TF.SameCoordinates,C6FC8C43-5F09-430E-809C-99FA1FC46BEF*%
%TF.FilePolarity,Negative*%
%TF.FileFunction,Soldermask,Top*%
%TF.Part,Single*%
G01*
G75*
%TA.AperFunction,ComponentPad*%
%ADD15C,1.60000*%
%ADD16R,1.60000X1.60000*%
G04:AMPARAMS|DCode=21|XSize=1.6mm|YSize=3.2mm|CornerRadius=0.8mm|HoleSize=0mm|Usage=FLASHONLY|Rotation=270.000|XOffset=0mm|YOffset=0mm|HoleType=Round|Shape=RoundedRectangle|*
%AMROUNDEDRECTD21*
21,1,1.60000,1.60000,0,0,270.0*
21,1,0.00000,3.20000,0,0,270.0*
1,1,1.60000,-0.80000,0.00000*
1,1,1.60000,-0.80000,0.00000*
1,1,1.60000,0.80000,0.00000*
1,1,1.60000,0.80000,0.00000*
%
%ADD21ROUNDEDRECTD21*%
G04:AMPARAMS|DCode=22|XSize=3.2mm|YSize=1.6mm|CornerRadius=0.8mm|HoleSize=0mm|Usage=FLASHONLY|Rotation=270.000|XOffset=0mm|YOffset=0mm|HoleType=Round|Shape=RoundedRectangle|*
%AMROUNDEDRECTD22*
21,1,3.20000,0.00000,0,0,270.0*
21,1,1.60000,1.60000,0,0,270.0*
1,1,1.60000,0.00000,-0.80000*
1,1,1.60000,0.00000,0.80000*
1,1,1.60000,0.00000,0.80000*
1,1,1.60000,0.00000,-0.80000*
%
%ADD22ROUNDEDRECTD22*%
%ADD23R,1.60000X3.20000*%
%TA.AperFunction,SMDPad,CuDef*%
G04:AMPARAMS|DCode=30|XSize=1.5032mm|YSize=0.9632mm|CornerRadius=0.1966mm|HoleSize=0mm|Usage=FLASHONLY|Rotation=90.000|XOffset=0mm|YOffset=0mm|HoleType=Round|Shape=RoundedRectangle|*
%AMROUNDEDRECTD30*
21,1,1.50320,0.57000,0,0,90.0*
21,1,1.11000,0.96320,0,0,90.0*
1,1,0.39320,0.28500,0.55500*
1,1,0.39320,0.28500,-0.55500*
1,1,0.39320,-0.28500,-0.55500*
1,1,0.39320,-0.28500,0.55500*
%
%ADD30ROUNDEDRECTD30*%
G04:AMPARAMS|DCode=31|XSize=1.5032mm|YSize=0.9632mm|CornerRadius=0.1966mm|HoleSize=0mm|Usage=FLASHONLY|Rotation=0.000|XOffset=0mm|YOffset=0mm|HoleType=Round|Shape=RoundedRectangle|*
%AMROUNDEDRECTD31*
21,1,1.50320,0.57000,0,0,0.0*
21,1,1.11000,0.96320,0,0,0.0*
1,1,0.39320,0.55500,-0.28500*
1,1,0.39320,-0.55500,-0.28500*
1,1,0.39320,-0.55500,0.28500*
1,1,0.39320,0.55500,0.28500*
%
%ADD31ROUNDEDRECTD31*%
%ADD32R,3.76320X1.47320*%
%TA.AperFunction,ComponentPad*%
%ADD33C,1.75320*%
%ADD34R,1.75320X1.75320*%
%ADD35C,1.70320*%
%ADD36R,1.70320X1.70320*%
%TA.AperFunction,ViaPad*%
%ADD37C,1.47320*%
D15*
X9443800Y5600000D02*
D03*
D16*
X8356200D02*
D03*
D21*
X10650000Y7520000D02*
D03*
D22*
X10950000Y7050000D02*
D03*
D23*
X10350000D02*
D03*
D30*
X10539000Y6200000D02*
D03*
X10360000D02*
D03*
X7690000Y7250000D02*
D03*
X7511000D02*
D03*
D31*
X8200000Y7211000D02*
D03*
Y7390000D02*
D03*
X7250000Y6860000D02*
D03*
Y7039000D02*
D03*
Y6410000D02*
D03*
Y6589000D02*
D03*
X6950000Y6410000D02*
D03*
Y6589000D02*
D03*
X9200000Y7390000D02*
D03*
Y7211000D02*
D03*
X8900000Y7390000D02*
D03*
Y7211000D02*
D03*
X6700000Y6410000D02*
D03*
Y6589000D02*
D03*
X8600000Y7389000D02*
D03*
Y7210000D02*
D03*
X9500000Y7389000D02*
D03*
Y7210000D02*
D03*
X9800000Y7211000D02*
D03*
Y7390000D02*
D03*
X10950000Y6239000D02*
D03*
Y6060000D02*
D03*
D32*
X8310500Y7696000D02*
D03*
X7789500D02*
D03*
X8310500Y7950000D02*
D03*
X7789500D02*
D03*
X8310500Y8204000D02*
D03*
X7789500D02*
D03*
D33*
X9488000Y8150000D02*
D03*
X9742000D02*
D03*
X9996000D02*
D03*
X10250000D02*
D03*
X7650000Y5600000D02*
D03*
X7396000D02*
D03*
X7142000D02*
D03*
X6888000D02*
D03*
D34*
X10504000Y8150000D02*
D03*
X7904000Y5600000D02*
D03*
D35*
X7838000Y5969000D02*
D03*
X8092000D02*
D03*
X8346000D02*
D03*
X8600000D02*
D03*
X8854000D02*
D03*
X9108000D02*
D03*
X9362000D02*
D03*
X7838000Y6731000D02*
D03*
X8092000D02*
D03*
X8346000D02*
D03*
X8600000D02*
D03*
X8854000D02*
D03*
X9108000D02*
D03*
D36*
X9362000D02*
D03*
D37*
X9650000Y5950000D02*
D03*
X8650000Y8200000D02*
D03*
X11050000Y7650000D02*
D03*
X10050000Y7350000D02*
D03*
X7650000Y5350000D02*
D03*
X10950000Y5900000D02*
D03*
X9600000Y7850000D02*
D03*
X10700000Y6200000D02*
D03*
X8600000Y7550000D02*
D03*
%TF.MD5,4efd490430402ecdc9367826de70338d*%
M02*
